<?xml version="1.0" encoding="UTF-8"?>
<!-- Created with EazyDraw for Mac ( https://www.eazydraw.com/ ) -->

<svg
    version="1.1"
    xmlns:dc="http://purl.org/dc/elements/1.1/"
    xmlns:cc="http://creativecommons.org/ns#"
    xmlns:rdf="http://www.w3.org/1999/02/22-rdf-syntax-ns#"
    xmlns:svg="http://www.w3.org/2000/svg"
    xmlns:xlink="http://www.w3.org/1999/xlink"
    xmlns="http://www.w3.org/2000/svg"
    width="1024"
    height="1024"
    viewBox="0, 0, 1024, 1024"
    preserveAspectRatio="none"
    id="svg2">
   <defs
       id="defs_23B2E064"/>
   <metadata
       id="metadata7">
      <rdf:RDF>
         <cc:Work
             rdf:about="">
            <dc:format>image/svg+xml</dc:format>
            <dc:type rdf:resource="http://purl.org/dc/dcmitype/StillImage"/>
            <dc:title></dc:title>
         </cc:Work>
      </rdf:RDF>
   </metadata>
   <g
       id="2 - Layer"
       style="fill:#000000;fill-opacity:1;stroke:#000000;stroke-opacity:1;fill-rule:nonzero;stroke-linecap:square;stroke-linejoin:miter;stroke-width:1;stroke-miterlimit:10">
      <path
          style="fill:#D0D0D0;fill-rule:evenodd;stroke-width:1.2"
          id="92F2C5C2"
          d="M448.716100002,531.2371 C448.716100002,672.0371 448.716100003,812.8371 448.716100002,953.6371 C396.755675351,953.6371 375.186261935,913.473504494 297.127859754,724.051482022 C219.59255407,914.897324719 191.955675352,953.6371 141.516100004,953.6371
C141.516100003,646.4371 141.516100002,339.237100001 141.516100002,32.0371000011 C243.916100001,32.0371000029 346.3161,32.0370999993 448.716100001,32.0371000002 C448.7161,57.6371000004 448.7161,83.2371000006 448.716100001,108.837100001
C474.316100001,211.237100002 499.916100001,313.637099999 525.516100002,416.0371 C499.916100001,416.037099999 474.316100002,416.037100002 448.716100002,416.0371 C448.716100002,428.8371 448.716100002,441.6371 448.716100002,454.4371
C448.909406016,454.976907831 449.10271203,455.516715662 449.296018045,456.056523493 C377.239389784,444.385222203 310.985837655,409.057265877 260.763215642,355.526387444 C281.658050351,447.226996517 355.930944745,517.187467168 448.716100002,532.566374337
M295.116100002,233.6371 C301.399835352,233.640573068 307.680819362,232.391207667 313.484904755,229.983317559 C319.291648317,227.581844844 324.616409449,224.023953203 329.057225498,219.578225499 C333.502953204,215.13740945 337.060844844,209.812648314 339.462317561,204.005904751
C341.870207668,198.201819361 343.119573067,191.920835352 343.116100002,185.637100001 C343.116100002,185.637100001 343.116100002,185.637100001 343.116100002,185.637100001 C343.119573068,179.353364653 341.870207668,173.072380641 339.462317562,167.268295249
C337.060844844,161.461551687 333.502953204,156.136790554 329.057225499,151.695974505 C324.616409449,147.250246798 319.291648318,143.69235516 313.484904755,141.290882441 C307.680819362,138.882992335 301.399835351,137.633626934 295.116100002,137.637100001
C288.832364651,137.633626934 282.551380641,138.882992334 276.747295248,141.290882442 C270.940551686,143.692355158 265.615790554,147.250246798 261.174974504,151.695974503 C256.729246799,156.136790551 253.17135516,161.461551687 250.769882442,167.26829525
C248.361992335,173.07238064 247.112626936,179.353364649 247.116100001,185.637100001 C247.112626937,191.920835353 248.361992335,198.20181936 250.769882441,204.005904752 C253.171355158,209.812648314 256.729246799,215.137409447 261.174974504,219.578225496
C265.615790554,224.023953203 270.940551685,227.581844842 276.747295248,229.983317561 C282.551380641,232.391207666 288.832364652,233.640573068 295.116100002,233.6371 z"/>
   </g>
</svg>
