<?xml version="1.0" encoding="UTF-8"?>
<!-- Created with EazyDraw for Mac ( https://www.eazydraw.com/ ) -->

<svg
    version="1.1"
    xmlns:dc="http://purl.org/dc/elements/1.1/"
    xmlns:cc="http://creativecommons.org/ns#"
    xmlns:rdf="http://www.w3.org/1999/02/22-rdf-syntax-ns#"
    xmlns:svg="http://www.w3.org/2000/svg"
    xmlns:xlink="http://www.w3.org/1999/xlink"
    xmlns="http://www.w3.org/2000/svg"
    width="1024"
    height="1024"
    viewBox="0, 0, 1024, 1024"
    preserveAspectRatio="none"
    id="svg2">
   <defs
       id="defs_B1B2E064"/>
   <metadata
       id="metadata7">
      <rdf:RDF>
         <cc:Work
             rdf:about="">
            <dc:format>image/svg+xml</dc:format>
            <dc:type rdf:resource="http://purl.org/dc/dcmitype/StillImage"/>
            <dc:title></dc:title>
         </cc:Work>
      </rdf:RDF>
   </metadata>
   <g
       id="3 - Layer"
       style="fill:#000000;fill-opacity:1;stroke:#000000;stroke-opacity:1;fill-rule:nonzero;stroke-linecap:square;stroke-linejoin:miter;stroke-width:1;stroke-miterlimit:10">
      <path
          style="fill:#D0D0D0;fill-rule:evenodd;stroke-width:1.2"
          id="9A3486C2"
          d="M570.488643443,568.974077158 C570.218327015,709.773817673 569.948010587,850.573558188 569.677694158,991.373298702 C621.638023051,991.473055495 643.284505236,951.350944284 721.706427513,762.079132186 C798.875192816,953.073480175 826.437645618,991.866243026 876.877128009,991.96308
C877.466909307,684.76364615 878.056690605,377.5642123 878.646471903,70.3647784497 C776.246660619,70.1681846817 673.846849337,69.9715909192 571.447038053,69.7749971512 C571.397889611,95.3749499719 571.34874117,120.974902793 571.299592728,146.574855614
C545.503046141,248.925518454 519.706499555,351.276181299 493.909952967,453.62684414 C519.509905789,453.675992582 545.109858609,453.725141021 570.70981143,453.774289464 C570.68523721,466.574265875 570.660662989,479.374242285 570.636088768,492.174218695
C570.441746754,492.713654411 570.247404739,493.253090126 570.053062725,493.792525842 C642.131965467,482.259584769 708.453220261,447.058891164 758.778521563,393.624531839 C737.707672939,485.284856734 663.300601045,555.102604818 570.486091421,570.303349045
M724.659711001,271.669516264 C718.375980564,271.660925427 712.097406737,270.399503711 706.297954854,267.980475006 C700.495832487,265.567858573 695.177911826,261.999750689 690.74563914,257.545505426 C686.308445378,253.096162382 682.760783095,247.764580405 680.370462943,241.953237051
C677.973720313,236.144539541 676.736415833,229.861168502 676.75195279,223.577451398 C676.75195279,223.577451398 676.75195279,223.577451398 676.75195279,223.577451398 C676.760543629,217.293720958 678.021965342,211.015147133 680.440994046,205.215695248
C682.853610481,199.413572886 686.421718364,194.095652221 690.875963626,189.663379536 C695.325306671,185.226185775 700.656888646,181.678523491 706.468232002,179.288203342 C712.276929512,176.891460709 718.560300554,175.654156227 724.844017657,175.669693186
C731.127748093,175.678284024 737.406321921,176.93970574 743.205773804,179.358734445 C749.007896171,181.771350878 754.325816832,185.339458761 758.758089518,189.793704024 C763.195283281,194.243047068 766.742945563,199.574629045 769.133265714,205.3859724
C771.530008345,211.19466991 772.767312825,217.478040949 772.751775868,223.761758053 C772.743185029,230.045488492 771.481763316,236.324062318 769.062734612,242.123514202 C766.650118177,247.925636565 763.082010294,253.24355723 758.627765032,257.675829915
C754.178421987,262.113023676 748.846840011,265.66068596 743.035496656,268.051006109 C737.226799146,270.447748742 730.943428104,271.685053224 724.659711001,271.669516264 z"/>
   </g>
</svg>
