<?xml version="1.0" encoding="UTF-8"?>
<!-- Created with EazyDraw for Mac ( https://www.eazydraw.com/ ) -->

<svg
    version="1.1"
    xmlns:dc="http://purl.org/dc/elements/1.1/"
    xmlns:cc="http://creativecommons.org/ns#"
    xmlns:rdf="http://www.w3.org/1999/02/22-rdf-syntax-ns#"
    xmlns:svg="http://www.w3.org/2000/svg"
    xmlns:xlink="http://www.w3.org/1999/xlink"
    xmlns="http://www.w3.org/2000/svg"
    width="1024"
    height="1024"
    viewBox="0, 0, 1024, 1024"
    preserveAspectRatio="none"
    id="svg2">
   <defs
       id="defs_E25068C4"/>
   <metadata
       id="metadata7">
      <rdf:RDF>
         <cc:Work
             rdf:about="">
            <dc:format>image/svg+xml</dc:format>
            <dc:type rdf:resource="http://purl.org/dc/dcmitype/StillImage"/>
            <dc:title></dc:title>
         </cc:Work>
      </rdf:RDF>
   </metadata>
   <g
       id="2 - Layer"
       style="fill:#000000;fill-opacity:1;stroke:#000000;stroke-opacity:1;fill-rule:nonzero;stroke-linecap:square;stroke-linejoin:miter;stroke-width:1;stroke-miterlimit:10">
      <path
          style="fill:#D0D0D0;fill-rule:evenodd;stroke-width:1.2"
          id="92F2C5C2"
          d="M448.716100004,531.237100002 C448.716100003,672.037100002 448.716100004,812.837100002 448.716100004,953.637100002 C396.755675353,953.637100002 375.186261937,913.473504496 297.127859755,724.051482024 C219.592554071,914.897324721 191.955675353,953.637100002 141.516100005,953.637100002
C141.516100004,646.437100003 141.516100003,339.237100003 141.516100002,32.0371000032 C243.916100002,32.0371000049 346.316100001,32.0371000015 448.716100002,32.0371000029 C448.716100002,57.6371000029 448.716100002,83.237100003 448.716100002,108.837100003
C474.316100002,211.237100004 499.916100002,313.637100001 525.516100003,416.037100002 C499.916100002,416.037100001 474.316100003,416.037100004 448.716100003,416.037100003 C448.716100003,428.837100002 448.716100003,441.637100003 448.716100003,454.437100002
C448.909406017,454.976907833 449.102712032,455.516715664 449.296018046,456.056523496 C377.239389785,444.385222206 310.985837656,409.05726588 260.763215643,355.526387447 C281.658050352,447.22699652 355.930944746,517.18746717 448.716100003,532.566374339
M295.116100003,233.637100003 C301.399835353,233.64057307 307.680819364,232.391207669 313.484904755,229.983317561 C319.291648318,227.581844846 324.61640945,224.023953205 329.057225499,219.578225501 C333.502953205,215.137409452 337.060844845,209.812648316 339.462317562,204.005904754
C341.870207669,198.201819364 343.119573068,191.920835355 343.116100003,185.637100003 C343.116100003,185.637100003 343.116100003,185.637100003 343.116100003,185.637100003 C343.119573069,179.353364655 341.870207669,173.072380643 339.462317563,167.268295251
C337.060844845,161.461551689 333.502953205,156.136790557 329.0572255,151.695974508 C324.61640945,147.250246801 319.291648319,143.692355162 313.484904756,141.290882443 C307.680819363,138.882992338 301.399835352,137.633626936 295.116100003,137.637100003
C288.832364652,137.633626936 282.551380642,138.882992336 276.747295249,141.290882445 C270.940551687,143.69235516 265.615790555,147.250246801 261.174974505,151.695974505 C256.7292468,156.136790554 253.171355161,161.461551689 250.769882443,167.268295252
C248.361992336,173.072380642 247.112626936,179.353364651 247.116100002,185.637100003 C247.112626938,191.920835355 248.361992336,198.201819362 250.769882442,204.005904755 C253.171355159,209.812648317 256.7292468,215.137409449 261.174974505,219.578225498
C265.615790555,224.023953205 270.940551686,227.581844844 276.747295249,229.983317563 C282.551380642,232.391207668 288.832364653,233.64057307 295.116100003,233.637100003 z"/>
   </g>
</svg>
