<?xml version="1.0" encoding="UTF-8"?>
<!-- Created with EazyDraw for Mac ( https://www.eazydraw.com/ ) -->

<svg
    version="1.1"
    xmlns:dc="http://purl.org/dc/elements/1.1/"
    xmlns:cc="http://creativecommons.org/ns#"
    xmlns:rdf="http://www.w3.org/1999/02/22-rdf-syntax-ns#"
    xmlns:svg="http://www.w3.org/2000/svg"
    xmlns:xlink="http://www.w3.org/1999/xlink"
    xmlns="http://www.w3.org/2000/svg"
    width="1024"
    height="1024"
    viewBox="0, 0, 1024, 1024"
    preserveAspectRatio="none"
    id="svg2">
   <defs
       id="defs_005068C4"/>
   <metadata
       id="metadata7">
      <rdf:RDF>
         <cc:Work
             rdf:about="">
            <dc:format>image/svg+xml</dc:format>
            <dc:type rdf:resource="http://purl.org/dc/dcmitype/StillImage"/>
            <dc:title></dc:title>
         </cc:Work>
      </rdf:RDF>
   </metadata>
   <g
       id="3 - Layer"
       style="fill:#000000;fill-opacity:1;stroke:#000000;stroke-opacity:1;fill-rule:nonzero;stroke-linecap:square;stroke-linejoin:miter;stroke-width:1;stroke-miterlimit:10">
      <path
          style="fill:#D0D0D0;fill-rule:evenodd;stroke-width:1.2"
          id="9A3486C2"
          d="M570.488643442,568.974077161 C570.218327014,709.773817675 569.948010585,850.57355819 569.677694157,991.373298704 C621.638023049,991.473055498 643.284505235,951.350944286 721.706427512,762.079132189 C798.875192815,953.073480178 826.437645617,991.866243029 876.877128008,991.963080003
C877.466909306,684.763646153 878.056690604,377.564212302 878.646471902,70.3647784514 C776.246660618,70.1681846838 673.846849336,69.9715909208 571.447038052,69.7749971532 C571.39788961,95.374949974 571.348741169,120.974902795 571.299592727,146.574855616
C545.50304614,248.925518456 519.706499554,351.276181301 493.909952966,453.626844142 C519.509905787,453.675992585 545.109858607,453.725141024 570.709811429,453.774289467 C570.685237208,466.574265877 570.660662987,479.374242287 570.636088767,492.174218698
C570.441746753,492.713654413 570.247404738,493.253090129 570.053062724,493.792525844 C642.131965466,482.259584771 708.45322026,447.058891167 758.778521561,393.624531841 C737.707672937,485.284856736 663.300601044,555.102604821 570.48609142,570.303349048
M724.659711,271.669516267 C718.375980563,271.660925429 712.097406736,270.399503713 706.297954853,267.980475008 C700.495832486,265.567858575 695.177911825,261.999750692 690.745639139,257.545505428 C686.308445376,253.096162384 682.760783094,247.764580408 680.370462942,241.953237054
C677.973720312,236.144539543 676.736415832,229.861168504 676.751952789,223.5774514 C676.751952789,223.5774514 676.751952789,223.5774514 676.751952789,223.5774514 C676.760543628,217.29372096 678.021965341,211.015147135 680.440994045,205.215695251
C682.85361048,199.413572888 686.421718363,194.095652223 690.875963625,189.663379538 C695.32530667,185.226185777 700.656888646,181.678523494 706.468232001,179.288203344 C712.276929511,176.891460711 718.560300554,175.654156229 724.844017656,175.669693188
C731.127748093,175.678284026 737.40632192,176.939705742 743.205773803,179.358734447 C749.00789617,181.77135088 754.325816831,185.339458764 758.758089518,189.793704027 C763.19528328,194.243047071 766.742945562,199.574629047 769.133265713,205.385972402
C771.530008344,211.194669912 772.767312824,217.478040951 772.751775867,223.761758055 C772.743185028,230.045488495 771.481763315,236.32406232 769.06273461,242.123514204 C766.650118176,247.925636567 763.082010293,253.243557232 758.627765031,257.675829917
C754.178421986,262.113023679 748.84684001,265.660685962 743.035496655,268.051006111 C737.226799145,270.447748744 730.943428103,271.685053226 724.659711,271.669516267 z"/>
   </g>
</svg>
