<?xml version="1.1" encoding="UTF-8"?>
<svg width="405px" height="548px" xmlns="http://www.w3.org/2000/svg" version="1.1">
    <title>DropboxHow</title>
    <description>Created with Sketch (http://www.bohemiancoding.com/sketch)</description>
    <defs></defs>
    <g fill="none">
        <path d="M96,62 L254,62" stroke="rgb(0,0,0)" stroke-width="1" fill="none"></path>
        <path d="" stroke="rgb(0,0,0)" stroke-width="1" fill="none"></path>
        <text x="-9" y="45" font-family="Helvetica" font-size="12" fill="rgb(0,0,0)">Dropbox Server</text>
        <text x="-9" y="170" font-family="Helvetica" font-size="12" fill="rgb(0,0,0)">Dropbox™
Application</text>
        <text x="-9" y="168" font-family="Helvetica" font-size="12" fill="rgb(0,0,0)">Dropbox™
Application</text>
        <text x="-9" y="345" font-family="Helvetica" font-size="12" fill="rgb(0,0,0)">BookMacster
Application</text>
        <text x="-9" y="343" font-family="Helvetica" font-size="12" fill="rgb(0,0,0)">BookMacster
Application</text>
        <text x="-9" y="505" font-family="Helvetica" font-size="12" fill="rgb(0,0,0)">Web Browser Apps</text>
        <text x="154" y="538" font-family="Helvetica" font-size="14" fill="rgb(0,0,0)">Your First Mac</text>
        <text x="363" y="537" font-family="Helvetica" font-size="14" fill="rgb(0,0,0)">Your Other Mac</text>
        <text x="-9" y="505" font-family="Helvetica" font-size="12" fill="rgb(0,0,0)">Web Browser Apps</text>
        <g fill="none">
            <path d="M62,281 L62,317" stroke="rgb(0,0,0)" stroke-width="1" fill="none"></path>
            <path d="M67,281 L58,281 L62,273 L62,273 Z M67,281" stroke="rgb(0,0,0)" stroke-width="1" fill="rgb(0,0,0)"></path>
        </g>
        <g fill="none">
            <path d="M61,197 L61,233" stroke="rgb(0,0,0)" stroke-width="1" fill="none"></path>
            <path d="M66,197 L57,197 L61,189 L61,189 Z M66,197" stroke="rgb(0,0,0)" stroke-width="1" fill="rgb(0,0,0)"></path>
        </g>
        <g fill="none">
            <path d="M269,282 L269,318" stroke="rgb(0,0,0)" stroke-width="1" fill="none"></path>
            <path d="M274,282 L265,282 L269,274 L269,274 Z M274,282" stroke="rgb(0,0,0)" stroke-width="1" fill="rgb(0,0,0)"></path>
        </g>
        <g fill="none">
            <path d="M84,282 L84,318" stroke="rgb(0,0,0)" stroke-width="1" fill="none"></path>
            <path d="M89,282 L80,282 L84,274 L84,274 Z M89,282" stroke="rgb(0,0,0)" stroke-width="1" fill="rgb(0,0,0)"></path>
        </g>
        <g fill="none">
            <path d="M83,198 L83,234" stroke="rgb(0,0,0)" stroke-width="1" fill="none"></path>
            <path d="M88,198 L79,198 L83,190 L83,190 Z M88,198" stroke="rgb(0,0,0)" stroke-width="1" fill="rgb(0,0,0)"></path>
        </g>
        <g fill="none">
            <path d="M291,283 L291,319" stroke="rgb(0,0,0)" stroke-width="1" fill="none"></path>
            <path d="M296,283 L287,283 L291,275 L291,275 Z M296,283" stroke="rgb(0,0,0)" stroke-width="1" fill="rgb(0,0,0)"></path>
        </g>
        <path d="M35,311 C39,311 44,306 44,302 C44,297 39,293 35,293 C30,293 26,297 26,302 C26,306 30,311 35,311" stroke="rgb(126,126,126)" stroke-width="1" fill="none"></path>
        <path d="M34,227 C38,227 43,222 43,218 C43,213 38,209 34,209 C29,209 25,213 25,218 C25,222 29,227 34,227" stroke="rgb(126,126,126)" stroke-width="1" fill="none"></path>
        <path d="M37,134 C41,134 46,129 46,125 C46,120 41,116 37,116 C32,116 28,120 28,125 C28,129 32,134 37,134" stroke="rgb(126,126,126)" stroke-width="1" fill="none"></path>
        <path d="M320,299 C324,299 329,294 329,290 C329,285 324,281 320,281 C315,281 311,285 311,290 C311,294 315,299 320,299" stroke="rgb(126,126,126)" stroke-width="1" fill="none"></path>
        <path d="M333,129 C337,129 342,124 342,120 C342,115 337,111 333,111 C328,111 324,115 324,120 C324,124 328,129 333,129" stroke="rgb(126,126,126)" stroke-width="1" fill="none"></path>
        <path d="M179,107 C183,107 188,102 188,98 C188,93 183,89 179,89 C174,89 170,93 170,98 C170,102 174,107 179,107" stroke="rgb(126,126,126)" stroke-width="1" fill="none"></path>
        <path d="M45,302 L63,302" stroke="rgb(126,126,126)" stroke-width="1" fill="none"></path>
        <path d="M44,218 L62,218" stroke="rgb(126,126,126)" stroke-width="1" fill="none"></path>
        <path d="M49,125 L67,125" stroke="rgb(126,126,126)" stroke-width="1" fill="none"></path>
        <path d="M293,290 L311,290" stroke="rgb(126,126,126)" stroke-width="1" fill="none"></path>
        <g fill="none">
            <path d="M61,375 L61,411" stroke="rgb(0,0,0)" stroke-width="1" fill="none"></path>
            <path d="M66,375 L57,375 L61,367 L61,367 Z M66,375" stroke="rgb(0,0,0)" stroke-width="1" fill="rgb(0,0,0)"></path>
        </g>
        <g fill="none">
            <path d="M268,373 L268,409" stroke="rgb(0,0,0)" stroke-width="1" fill="none"></path>
            <path d="M273,373 L264,373 L268,365 L268,365 Z M273,373" stroke="rgb(0,0,0)" stroke-width="1" fill="rgb(0,0,0)"></path>
        </g>
        <g fill="none">
            <path d="M83,376 L83,412" stroke="rgb(0,0,0)" stroke-width="1" fill="none"></path>
            <path d="M88,376 L79,376 L83,368 L83,368 Z M88,376" stroke="rgb(0,0,0)" stroke-width="1" fill="rgb(0,0,0)"></path>
        </g>
        <g fill="none">
            <path d="M290,374 L290,410" stroke="rgb(0,0,0)" stroke-width="1" fill="none"></path>
            <path d="M295,374 L286,374 L290,366 L290,366 Z M295,374" stroke="rgb(0,0,0)" stroke-width="1" fill="rgb(0,0,0)"></path>
        </g>
        <path d="M34,405 C38,405 43,400 43,396 C43,391 38,387 34,387 C29,387 25,391 25,396 C25,400 29,405 34,405" stroke="rgb(126,126,126)" stroke-width="1" fill="none"></path>
        <path d="M319,390 C323,390 328,385 328,381 C328,376 323,372 319,372 C314,372 310,376 310,381 C310,385 314,390 319,390" stroke="rgb(126,126,126)" stroke-width="1" fill="none"></path>
        <path d="M44,396 L62,396" stroke="rgb(126,126,126)" stroke-width="1" fill="none"></path>
        <path d="M292,381 L310,381" stroke="rgb(126,126,126)" stroke-width="1" fill="none"></path>
        <text x="-9" y="396" font-family="Helvetica" font-size="12" fill="rgb(0,0,0)">A</text>
        <text x="-9" y="302" font-family="Helvetica" font-size="12" fill="rgb(0,0,0)">B</text>
        <text x="32" y="218" font-family="Helvetica" font-size="12" fill="rgb(0,0,0)">C</text>
        <text x="-9" y="120" font-family="Helvetica" font-size="12" fill="rgb(0,0,0)">F</text>
        <text x="-9" y="206" font-family="Helvetica" font-size="12" fill="rgb(0,0,0)">G</text>
        <text x="-9" y="290" font-family="Helvetica" font-size="12" fill="rgb(0,0,0)">H</text>
        <text x="-9" y="382" font-family="Helvetica" font-size="12" fill="rgb(0,0,0)">I</text>
        <text x="-9" y="99" font-family="Helvetica" font-size="12" fill="rgb(0,0,0)">E</text>
        <path d="M45,124 L63,124" stroke="rgb(126,126,126)" stroke-width="1" fill="none"></path>
        <text x="21" y="125" font-family="Helvetica" font-size="12" fill="rgb(0,0,0)">D</text>
        <path d="M253,66 L253,57 L261,62 L261,62 Z M253,66" stroke="rgb(0,0,0)" stroke-width="1" fill="rgb(0,0,0)"></path>
        <path d="M119,66 L119,57 L127,62 L127,62 Z M119,66" stroke="rgb(0,0,0)" stroke-width="1" fill="rgb(0,0,0)"></path>
        <path d="M305,119 L323,119" stroke="rgb(126,126,126)" stroke-width="1" fill="none"></path>
        <g fill="none">
            <path d="M269,198 L269,234" stroke="rgb(0,0,0)" stroke-width="1" fill="none"></path>
            <path d="M274,198 L265,198 L269,190 L269,190 Z M274,198" stroke="rgb(0,0,0)" stroke-width="1" fill="rgb(0,0,0)"></path>
        </g>
        <g fill="none">
            <path d="M291,199 L291,235" stroke="rgb(0,0,0)" stroke-width="1" fill="none"></path>
            <path d="M296,199 L287,199 L291,191 L291,191 Z M296,199" stroke="rgb(0,0,0)" stroke-width="1" fill="rgb(0,0,0)"></path>
        </g>
        <path d="M320,215 C324,215 329,210 329,206 C329,201 324,197 320,197 C315,197 311,201 311,206 C311,210 315,215 320,215" stroke="rgb(126,126,126)" stroke-width="1" fill="none"></path>
        <path d="M293,206 L311,206" stroke="rgb(126,126,126)" stroke-width="1" fill="none"></path>
        <g fill="none"></g>
        <g fill="none"></g>
        <path d="M6,148 L6,519 L171,519 L171,148 Z M6,148" stroke="rgb(0,0,255)" stroke-width="3" fill="none"></path>
        <path d="M214,147 L214,518 L379,518 L379,147 Z M214,147" stroke="rgb(0,0,255)" stroke-width="3" fill="none"></path>
        <path d="M129,538 L147,538" stroke="rgb(0,0,0)" stroke-width="3" fill="none"></path>
        <path d="M342,538 L360,538" stroke="rgb(0,0,0)" stroke-width="3" fill="none"></path>
        <path d="M145,516 L145,537" stroke="rgb(0,0,0)" stroke-width="3" fill="none"></path>
        <path d="M358,516 L358,537" stroke="rgb(0,0,0)" stroke-width="3" fill="none"></path>
    </g>
</svg>