<?xml version="1.0" encoding="UTF-8"?>
<svg width="284px" height="150px" xmlns="http://www.w3.org/2000/svg" version="1.1">
    <title>IxportSourceDestin</title>
    <description>Created with Sketch (http://www.bohemiancoding.com/sketch)</description>
    <defs></defs>
    <g fill="none">
        <path d="M1,1 L1,31 L91,31 L91,1 Z M1,1" stroke="rgb(0,0,0)" stroke-width="1" fill="none"></path>
        <path d="M192,1 L192,31 L282,31 L282,1 Z M192,1" stroke="rgb(0,0,0)" stroke-width="1" fill="none"></path>
        <text x="30" y="20" font-family="Helvetica" font-size="12" fill="rgb(0,0,0)">Client</text>
        <text x="196" y="20" font-family="Helvetica" font-size="12" fill="rgb(0,0,0)">Bookmarkshelf</text>
        <path d="" stroke="rgb(0,0,0)" stroke-width="1" fill="none"></path>
        <path d="" stroke="rgb(0,0,0)" stroke-width="1" fill="none"></path>
        <path d="M91,15 L193,15" stroke="rgb(0,0,0)" stroke-width="1" fill="none"></path>
        <path d="M182,21 L182,10 L192,15 L192,15 Z M182,21" stroke="rgb(0,0,0)" stroke-width="1" fill="rgb(0,0,0)"></path>
        <text x="24" y="45" font-family="Helvetica" font-size="12" fill="rgb(0,0,0)">"Source"</text>
        <text x="202" y="45" font-family="Helvetica" font-size="12" fill="rgb(0,0,0)">"Destination"</text>
        <text x="118" y="60" font-family="Helvetica" font-size="16" fill="rgb(0,0,0)">Import</text>
        <path d="M1,89 L1,119 L91,119 L91,89 Z M1,89" stroke="rgb(0,0,0)" stroke-width="1" fill="none"></path>
        <path d="M192,89 L192,119 L282,119 L282,89 Z M192,89" stroke="rgb(0,0,0)" stroke-width="1" fill="none"></path>
        <text x="30" y="108" font-family="Helvetica" font-size="12" fill="rgb(0,0,0)">Client</text>
        <text x="196" y="108" font-family="Helvetica" font-size="12" fill="rgb(0,0,0)">Bookmarkshelf</text>
        <path d="" stroke="rgb(0,0,0)" stroke-width="1" fill="none"></path>
        <path d="" stroke="rgb(0,0,0)" stroke-width="1" fill="none"></path>
        <path d="M91,103 L193,103" stroke="rgb(0,0,0)" stroke-width="1" fill="none"></path>
        <path d="M101,98 L101,109 L91,103 L91,103 Z M101,98" stroke="rgb(0,0,0)" stroke-width="1" fill="rgb(0,0,0)"></path>
        <text x="212" y="134" font-family="Helvetica" font-size="12" fill="rgb(0,0,0)">"Source"</text>
        <text x="12" y="134" font-family="Helvetica" font-size="12" fill="rgb(0,0,0)">"Destination"</text>
        <text x="118" y="143" font-family="Helvetica" font-size="16" fill="rgb(0,0,0)">Export</text>
    </g>
</svg>
