<?xml version="1.0" encoding="UTF-8"?>
<!-- Created with EazyDraw for Mac ( https://www.eazydraw.com/ ) -->

<svg
    version="1.1"
    xmlns:dc="http://purl.org/dc/elements/1.1/"
    xmlns:cc="http://creativecommons.org/ns#"
    xmlns:rdf="http://www.w3.org/1999/02/22-rdf-syntax-ns#"
    xmlns:svg="http://www.w3.org/2000/svg"
    xmlns:xlink="http://www.w3.org/1999/xlink"
    xmlns="http://www.w3.org/2000/svg"
    width="1024"
    height="1024"
    viewBox="0, 0, 1024, 1024"
    preserveAspectRatio="none"
    id="svg2">
   <defs
       id="defs_6C51CAB4"/>
   <metadata
       id="metadata7">
      <rdf:RDF>
         <cc:Work
             rdf:about="">
            <dc:format>image/svg+xml</dc:format>
            <dc:type rdf:resource="http://purl.org/dc/dcmitype/StillImage"/>
            <dc:title></dc:title>
         </cc:Work>
      </rdf:RDF>
   </metadata>
   <g
       id="2 - Layer"
       style="fill:#000000;fill-opacity:1;stroke:#000000;stroke-opacity:1;fill-rule:nonzero;stroke-linecap:square;stroke-linejoin:miter;stroke-width:1;stroke-miterlimit:10">
      <path
          style="fill:#D0D0D0;fill-rule:evenodd;stroke-width:1.2"
          id="A1D96DAE"
          d="M195.08234186,627.197309557 C243.238778041,759.506030563 291.395214221,891.814751571 339.551650402,1024.12347258 C388.378478019,1006.35196069 394.91033795,961.233352501 403.475095195,756.537329868 C541.607572269,909.355123595 580.827526757,936.306235337 628.225223507,919.054884547
C523.156635477,630.381311442 418.088047448,341.707738336 313.019459418,53.0341652308 C216.79493505,88.0570279075 120.570410681,123.079890584 24.3458863127,158.102753261 C33.101601982,182.158884352 41.8573176512,206.215015445 50.6130333199,230.271146537
C61.5797649048,335.251386574 72.546496489,440.231626612 83.5132280733,545.21186665 C107.569359165,536.45615098 131.625490258,527.700435311 155.68162135,518.944719643 C160.059479184,530.972785189 164.437337019,543.000850734 168.815194853,555.02891628
C168.81817177,555.602284267 168.821148686,556.175652253 168.824125603,556.74902024 C232.543387318,521.136766215 282.718488668,465.279296953 311.603677257,397.799577127 C323.332410726,491.116417157 277.466610139,582.26058116 195.53698046,628.446418842
M237.633933759,295.010491596 C231.730341879,297.162919275 225.40083942,298.13712288 219.123236286,297.859560434 C212.845330167,297.588937508 206.624820815,296.066788553 200.931290317,293.408019576 C195.234824256,290.755545931 190.07032417,286.968777796 185.827654713,282.333575763
C181.579864031,277.703066468 178.257621534,272.228180276 176.111721082,266.322212678 C176.111721082,266.322212678 176.111721082,266.322212678 176.111721082,266.322212678 C173.959293403,260.418620797 172.985089798,254.089118339 173.262652244,247.811515204
C173.533275171,241.533609085 175.055424125,235.313099734 177.714193102,229.619569235 C180.366666747,223.923103175 184.153434882,218.758603089 188.788636914,214.515933631 C193.41914621,210.268142949 198.894032403,206.945900452 204.8,204.8
C210.703591882,202.647572321 217.03309434,201.673368716 223.310697474,201.950931162 C229.588603593,202.22155409 235.809112945,203.743703043 241.502643443,206.40247202 C247.199109504,209.054945665 252.363609589,212.8417138 256.606279047,217.476915833
C260.854069729,222.107425128 264.176312227,227.582311321 266.322212678,233.488278919 C268.474640357,239.3918708 269.448843962,245.721373259 269.171281516,251.998976392 C268.900658589,258.276882511 267.378509635,264.497391864 264.719740658,270.190922362
C262.067267013,275.887388422 258.280498879,281.051888507 253.645296846,285.294557965 C249.014787551,289.542348647 243.539901357,292.864591145 237.633933759,295.010491596 z"/>
   </g>
</svg>
