<?xml version="1.0" encoding="UTF-8"?>
<!-- Created with EazyDraw for Mac ( https://www.eazydraw.com/ ) -->

<svg
    version="1.1"
    xmlns:dc="http://purl.org/dc/elements/1.1/"
    xmlns:cc="http://creativecommons.org/ns#"
    xmlns:rdf="http://www.w3.org/1999/02/22-rdf-syntax-ns#"
    xmlns:svg="http://www.w3.org/2000/svg"
    xmlns:xlink="http://www.w3.org/1999/xlink"
    xmlns="http://www.w3.org/2000/svg"
    width="1024"
    height="1024"
    viewBox="0, 0, 1024, 1024"
    preserveAspectRatio="none"
    id="svg2">
   <defs
       id="defs_19DFD9B4"/>
   <metadata
       id="metadata7">
      <rdf:RDF>
         <cc:Work
             rdf:about="">
            <dc:format>image/svg+xml</dc:format>
            <dc:type rdf:resource="http://purl.org/dc/dcmitype/StillImage"/>
            <dc:title></dc:title>
         </cc:Work>
      </rdf:RDF>
   </metadata>
   <g
       id="3 - Layer"
       style="fill:#000000;fill-opacity:1;stroke:#000000;stroke-opacity:1;fill-rule:nonzero;stroke-linecap:square;stroke-linejoin:miter;stroke-width:1;stroke-miterlimit:10">
      <path
          style="fill:#D0D0D0;fill-rule:evenodd;stroke-width:1.2"
          id="D6B6C4AE"
          d="M586.183103459,535.898218593 C586.183103459,676.698218593 586.183103459,817.498218593 586.183103459,958.298218593 C534.222678807,958.298218593 512.653265391,918.134623087 434.59486321,728.712600615 C357.059557526,919.558443311 329.422678807,958.298218593 278.983103459,958.298218593
C278.98310346,651.098218593 278.983103459,343.898218592 278.983103459,36.6982185928 C381.383103459,36.698218593 483.783103459,36.6982185931 586.183103459,36.6982185932 C586.183103459,62.2982185927 586.183103459,87.8982185932 586.183103459,113.498218593
C611.783103459,215.898218593 637.383103459,318.298218593 662.983103459,420.698218593 C637.383103459,420.698218593 611.783103459,420.698218593 586.183103459,420.698218593 C586.183103459,433.498218593 586.183103459,446.298218593 586.183103459,459.098218593
C586.376409473,459.638026424 586.569715488,460.177834255 586.763021502,460.717642087 C514.706393241,449.046340795 448.452841112,413.718384469 398.230219099,360.187506037 C419.125053808,451.888115109 493.397948202,521.84858576 586.183103459,537.22749293
M432.583103459,238.298218593 C438.866838809,238.301691658 445.147822819,237.052326259 450.951908213,234.644436153 C456.758651775,232.242963436 462.083412907,228.685071795 466.524228956,224.23934409 C470.969956661,219.79852804 474.527848302,214.473766908 476.929321019,208.667023346
C479.337211125,202.862937953 480.586576524,196.581953943 480.583103459,190.298218593 C480.583103459,190.298218593 480.583103459,190.298218593 480.583103459,190.298218593 C480.586576525,184.014483243 479.337211125,177.733499233 476.929321019,171.929413839
C474.527848302,166.122670277 470.969956661,160.797909146 466.524228956,156.357093096 C462.083412907,151.911365391 456.758651775,148.353473751 450.951908213,145.952001032 C445.147822819,143.544110926 438.866838809,142.294745528 432.583103459,142.298218592
C426.299368109,142.294745527 420.018384098,143.544110926 414.214298705,145.952001032 C408.407555144,148.353473751 403.082794011,151.91136539 398.641977962,156.357093096 C394.196250257,160.797909145 390.638358617,166.122670277 388.236885899,171.92941384
C385.828995793,177.733499233 384.579630394,184.014483242 384.583103459,190.298218593 C384.579630394,196.581953944 385.828995793,202.862937954 388.236885899,208.667023347 C390.638358616,214.473766909 394.196250257,219.798528041 398.641977962,224.23934409
C403.082794011,228.685071795 408.407555143,232.242963435 414.214298705,234.644436154 C420.018384098,237.052326259 426.299368109,238.301691658 432.583103459,238.298218593 z"/>
   </g>
</svg>
