<?xml version="1.0" encoding="UTF-8"?>
<!-- Created with EazyDraw for Mac ( https://www.eazydraw.com/ ) -->

<svg
    version="1.1"
    xmlns:dc="http://purl.org/dc/elements/1.1/"
    xmlns:cc="http://creativecommons.org/ns#"
    xmlns:rdf="http://www.w3.org/1999/02/22-rdf-syntax-ns#"
    xmlns:svg="http://www.w3.org/2000/svg"
    xmlns:xlink="http://www.w3.org/1999/xlink"
    xmlns="http://www.w3.org/2000/svg"
    width="1024"
    height="1024"
    viewBox="0, 0, 1024, 1024"
    preserveAspectRatio="none"
    id="svg2">
   <defs
       id="defs_F6278E94"/>
   <metadata
       id="metadata7">
      <rdf:RDF>
         <cc:Work
             rdf:about="">
            <dc:format>image/svg+xml</dc:format>
            <dc:type rdf:resource="http://purl.org/dc/dcmitype/StillImage"/>
            <dc:title></dc:title>
         </cc:Work>
      </rdf:RDF>
   </metadata>
   <g
       id="4 - Layer"
       style="fill:#000000;fill-opacity:1;stroke:#000000;stroke-opacity:1;fill-rule:nonzero;stroke-linecap:square;stroke-linejoin:miter;stroke-width:1;stroke-miterlimit:10">
      <polyline
          style="fill:none;stroke-width:3"
          id="0FCB6974"
          points="861.057669669,377.49985513"/>
      <polyline
          style="fill:none;stroke-width:3"
          id="6ED7A974"
          points="861.168826879,379.204297487 861.057669669,377.49985513"/>
      <polyline
          style="fill:none;stroke-width:3"
          id="C3DB6974"
          points="861.057669669,377.49985513"/>
      <polyline
          style="fill:none;stroke-width:3"
          id="C5E7A974"
          points="861.168826879,379.204297487 861.057669669,377.49985513"/>
      <path
          style="fill:#D0D0D0;fill-rule:evenodd;stroke-width:1.2"
          id="5D94488E"
          d="M556.367149463,526.365901805 C519.925427913,662.368258147 483.483706362,798.370614488 447.041984812,934.37297083 C497.231900928,947.821318321 528.461457841,914.608839129 652.886111444,751.84421667 C678.384926886,956.25475875 695.053510153,1000.82745876 743.774398648,1013.88218149
C823.283609303,717.149767649 902.792819959,420.417353813 982.302030614,123.684939977 C883.391226002,97.1818697587 784.48042139,70.6787995402 685.569616778,44.1757293217 C678.943849224,68.9034304747 672.318081669,93.6311316277 665.692314114,118.358832781
C614.461542743,210.643869838 563.230771371,302.928906895 512,395.213943953 C536.727701153,401.839711507 561.455402306,408.465479062 586.183103459,415.091246617 C582.870219682,427.455097193 579.557335904,439.81894777 576.244452127,452.182798346
C575.918020308,452.654181393 575.591588489,453.125564441 575.26515667,453.596947488 C647.887269918,460.972963864 721.026834925,443.996459555 783.39297343,405.288172646 C739.476248873,488.456178069 649.627039776,536.809563886 556.023107949,527.649882217
M781.757904204,278.660981229 C775.687383048,277.03798557 769.943777938,274.205552981 764.960669776,270.377501901 C759.973333079,266.554961558 755.750858899,261.740152544 752.611998987,256.296541567 C749.467123549,250.856403656 747.408613718,244.792229243 746.591865023,238.561798794
C745.768229622,232.332274997 746.1870736,225.941950767 747.816778707,219.873227403 C747.816778707,219.873227403 747.816778707,219.873227403 747.816778707,219.873227403 C749.439774366,213.802706247 752.272206955,208.059101136 756.100258035,203.075992975
C759.922798378,198.088656277 764.737607392,193.866182098 770.181218369,190.727322186 C775.62135628,187.582446748 781.685530693,185.523936917 787.915961142,184.707188222 C794.145484939,183.883552821 800.535809169,184.302396799 806.604532534,185.932101906
C812.675053689,187.555097565 818.4186588,190.387530154 823.401766961,194.215581234 C828.389103659,198.038121577 832.611577838,202.852930591 835.75043775,208.296541567 C838.895313188,213.736679479 840.953823019,219.800853892 841.770571715,226.031284341
C842.594207115,232.260808138 842.175363137,238.651132368 840.54565803,244.719855732 C838.922662371,250.790376888 836.090229782,256.533981998 832.262178703,261.51709016 C828.439638359,266.504426858 823.624829345,270.726901037 818.181218369,273.865760949
C812.741080457,277.010636387 806.676906044,279.069146218 800.446475595,279.885894913 C794.216951798,280.709530314 787.826627569,280.290686336 781.757904204,278.660981229 z"/>
   </g>
</svg>
