<?xml version="1.0" encoding="UTF-8"?>
<!-- Created with EazyDraw for Mac ( https://www.eazydraw.com/ ) -->

<svg
    version="1.1"
    xmlns:dc="http://purl.org/dc/elements/1.1/"
    xmlns:cc="http://creativecommons.org/ns#"
    xmlns:rdf="http://www.w3.org/1999/02/22-rdf-syntax-ns#"
    xmlns:svg="http://www.w3.org/2000/svg"
    xmlns:xlink="http://www.w3.org/1999/xlink"
    xmlns="http://www.w3.org/2000/svg"
    width="1024"
    height="1024"
    viewBox="0, 0, 1024, 1024"
    preserveAspectRatio="none"
    id="svg2">
   <defs
       id="defs_C61381B4"/>
   <metadata
       id="metadata7">
      <rdf:RDF>
         <cc:Work
             rdf:about="">
            <dc:format>image/svg+xml</dc:format>
            <dc:type rdf:resource="http://purl.org/dc/dcmitype/StillImage"/>
            <dc:title></dc:title>
         </cc:Work>
      </rdf:RDF>
   </metadata>
   <g
       id="3 - Layer"
       style="fill:#000000;fill-opacity:1;stroke:#000000;stroke-opacity:1;fill-rule:nonzero;stroke-linecap:square;stroke-linejoin:miter;stroke-width:1;stroke-miterlimit:10">
      <path
          style="fill:#D0D0D0;fill-rule:evenodd;stroke-width:1.26"
          id="9A3486C2"
          d="M352.039453994,555.209812825 C351.755621744,703.049540365 351.471789495,850.889267906 351.187957245,998.728995447 C405.746302582,998.833740079 428.475108877,956.705523307 510.818127268,757.970120604 C591.845330836,958.514185993 620.785906278,999.246586987 673.747362789,999.34826581
C674.366633152,676.788860267 674.985903514,354.229454723 675.605173877,31.6700491793 C568.085372028,31.4636257235 460.565570182,31.2572022725 353.045768333,31.0507788167 C352.99416247,57.9307292786 352.942556606,84.8106797405 352.890950743,111.690630203
C325.804576826,219.158826185 298.718202911,326.627022173 271.631828994,434.095218155 C298.511779456,434.146824021 325.391729917,434.198429881 352.27168038,434.250035746 C352.245877448,447.690010977 352.220074516,461.129986208 352.194271585,474.569961439
C351.99021247,475.13636894 351.786153354,475.702776442 351.58209424,476.269183943 C427.264942119,464.159595816 496.902259653,427.198867531 549.743826019,371.092790239 C527.619434964,467.336131379 449.492009477,540.644766868 352.036774371,556.605548307
M513.91907493,243.040023886 C507.321157971,243.031003507 500.728655452,241.706510705 494.639230976,239.166530565 C488.54700249,236.63328331 482.963185796,232.886770032 478.309299475,228.209812506 C473.650246025,223.538002309 469.925200628,217.939841234 467.415364469,211.837930712
C464.898784707,205.738798326 463.599615003,199.141258735 463.615928808,192.543355776 C463.615928808,192.543355776 463.615928808,192.543355776 463.615928808,192.543355776 C463.624949189,185.945438814 464.949441987,179.352936298 467.489422127,173.263511819
C470.022669383,167.171283338 473.769182661,161.58746664 478.446140186,156.933580321 C483.117950383,152.274526871 488.716111457,148.549481474 494.818021981,146.039645317 C500.917154366,143.523065552 507.514693961,142.223895846 514.112596918,142.240209654
C520.710513877,142.249230033 527.303016396,143.573722834 533.392440872,146.113702975 C539.484669357,148.64695023 545.068486052,152.393463507 549.722372373,157.070421034 C554.381425823,161.74223123 558.10647122,167.340392305 560.616307379,173.442302827
C563.132887141,179.541435213 564.432056845,186.138974805 564.41574304,192.736877764 C564.406722659,199.334794725 563.082229861,205.927297242 560.542249721,212.01672172 C558.009002464,218.108950201 554.262489187,223.692766899 549.585531662,228.346653219
C544.913721465,233.005706668 539.31556039,236.730752065 533.213649867,239.240588222 C527.114517481,241.757167987 520.516977887,243.056337693 513.91907493,243.040023886 z"/>
   </g>
</svg>
